HIERARCHY
ROOT Hips
{
	OFFSET 0.00000 0.00000 0.00000
	CHANNELS 6 Xposition Yposition Zposition Zrotation Yrotation Xrotation 
	JOINT LHipJoint
	{
		OFFSET 0 0 0
		CHANNELS 3 Zrotation Yrotation Xrotation
		JOINT LeftUpLeg
		{
			OFFSET 1.64549 -1.70879 0.84566
			CHANNELS 3 Zrotation Yrotation Xrotation
			JOINT LeftLeg
			{
				OFFSET 2.24963 -6.18082 0.00000
				CHANNELS 3 Zrotation Yrotation Xrotation
				JOINT LeftFoot
				{
					OFFSET 2.71775 -7.46697 0.00000
					CHANNELS 3 Zrotation Yrotation Xrotation
					JOINT LeftToeBase
					{
						OFFSET 0.18768 -0.51564 2.24737
						CHANNELS 3 Zrotation Yrotation Xrotation
						End Site
						{
							OFFSET 0.00000 -0.00000 1.15935
						}
					}
				}
			}
		}
	}
	JOINT RHipJoint
	{
		OFFSET 0 0 0
		CHANNELS 3 Zrotation Yrotation Xrotation
		JOINT RightUpLeg
		{
			OFFSET -1.58830 -1.70879 0.84566
			CHANNELS 3 Zrotation Yrotation Xrotation
			JOINT RightLeg
			{
				OFFSET -2.25006 -6.18201 0.00000
				CHANNELS 3 Zrotation Yrotation Xrotation
				JOINT RightFoot
				{
					OFFSET -2.72829 -7.49593 0.00000
					CHANNELS 3 Zrotation Yrotation Xrotation
					JOINT RightToeBase
					{
						OFFSET -0.21541 -0.59185 2.10643
						CHANNELS 3 Zrotation Yrotation Xrotation
						End Site
						{
							OFFSET -0.00000 -0.00000 1.09838
						}
					}
				}
			}
		}
	}
	JOINT LowerBack
	{
		OFFSET 0 0 0
		CHANNELS 3 Zrotation Yrotation Xrotation
		JOINT Spine
		{
			OFFSET 0.03142 2.10496 -0.11038
			CHANNELS 3 Zrotation Yrotation Xrotation
			JOINT Spine1
			{
				OFFSET -0.01863 2.10897 -0.06956
				CHANNELS 3 Zrotation Yrotation Xrotation
				JOINT Neck
				{
					OFFSET 0 0 0
					CHANNELS 3 Zrotation Yrotation Xrotation
					JOINT Neck1
					{
						OFFSET -0.02267 1.73238 0.00451
						CHANNELS 3 Zrotation Yrotation Xrotation
						JOINT Head
						{
							OFFSET -0.05808 1.54724 -0.61749
							CHANNELS 3 Zrotation Yrotation Xrotation
							End Site
							{
								OFFSET -0.01396 1.71468 -0.21082
							}
						}
					}
				}
				JOINT LeftShoulder
				{
					OFFSET 0 0 0
					CHANNELS 3 Zrotation Yrotation Xrotation
					JOINT LeftArm
					{
						OFFSET 3.44898 0.50298 0.21920
						CHANNELS 3 Zrotation Yrotation Xrotation
						JOINT LeftForeArm
						{
							OFFSET 5.41917 -0.00000 -0.00000
							CHANNELS 3 Zrotation Yrotation Xrotation
							JOINT LeftHand
							{
								OFFSET 2.44373 -0.00000 0.00000
								CHANNELS 3 Zrotation Yrotation Xrotation
								JOINT LeftFingerBase
								{
									OFFSET 0 0 0
									CHANNELS 3 Zrotation Yrotation Xrotation
									JOINT LeftHandIndex1
									{
										OFFSET 0.72750 -0.00000 0.00000
										CHANNELS 3 Zrotation Yrotation Xrotation
										End Site
										{
											OFFSET 0.58653 -0.00000 0.00000
										}
									}
								}
								JOINT LThumb
								{
									OFFSET 0 0 0
									CHANNELS 3 Zrotation Yrotation Xrotation
									End Site
									{
										OFFSET 0.59549 -0.00000 0.59549
									}
								}
							}
						}
					}
				}
				JOINT RightShoulder
				{
					OFFSET 0 0 0
					CHANNELS 3 Zrotation Yrotation Xrotation
					JOINT RightArm
					{
						OFFSET -3.23015 0.55830 0.31051
						CHANNELS 3 Zrotation Yrotation Xrotation
						JOINT RightForeArm
						{
							OFFSET -5.58976 -0.00010 0.00014
							CHANNELS 3 Zrotation Yrotation Xrotation
							JOINT RightHand
							{
								OFFSET -2.48060 -0.00000 0.00000
								CHANNELS 3 Zrotation Yrotation Xrotation
								JOINT RightFingerBase
								{
									OFFSET 0 0 0
									CHANNELS 3 Zrotation Yrotation Xrotation
									JOINT RightHandIndex1
									{
										OFFSET -0.81601 -0.00000 0.00000
										CHANNELS 3 Zrotation Yrotation Xrotation
										End Site
										{
											OFFSET -0.65789 -0.00000 0.00000
										}
									}
								}
								JOINT RThumb
								{
									OFFSET 0 0 0
									CHANNELS 3 Zrotation Yrotation Xrotation
									End Site
									{
										OFFSET -0.66793 -0.00000 0.66793
									}
								}
							}
						}
					}
				}
			}
		}
	}
}
MOTION
Frames: 7
Frame Time: .0083333
1.7606 16.6047 16.7983 0 0 0 0 0 0 -21 0 0 0 0 0 0 0 0 0 0 0 0 0 0 21 0 0 0 0 0 0 0 0 0 0 0 0 0 0 0 0 0 0 0 0 0 0 -16 0 0 21 0 0 11 0 0 0 -8 0 0 0 0 0 0 0 0 0 0 0 0 0 0 0 0 0 0 0 0 8 0 0 0 0 0 0 0 0 0 0 0 0 0 0 0 0 0
1.7606 16.6047 16.7983 2.1925 3.6134 23.0594 0.0000 0.0000 0.0000 -27.8678 8.3923 -25.8850 7.3861 15.6486 50.3200 -5.3416 39.4102 -32.4251 5.9816 14.4105 44.9078 0.0000 0.0000 0.0000 25.8252 14.1879 -39.8486 -5.0673 -13.4592 41.1128 -6.9554 -13.8467 -55.0683 -5.8900 -14.3209 44.5386 -1.3888 -0.9846 -17.3579 -1.3727 -1.0257 -8.0804 -0.8403 -0.4980 1.0973 -3.5230 -2.2979 -15.8165 1.8336 -2.9742 35.3626 0.8722 -1.4871 15.0478 0.0000 0.0000 0.0000 -84.5244 22.3586 8.0205 24.3272 -35.5084 -7.8958 -0.0000 0.0000 -3.2890 -2.0985 18.3152 -0.6597 -7.1250 0.0000 -0.0000 -28.1351 46.1844 -0.8930 0.0000 0.0000 0.0000 81.1886 -13.7258 34.1125 -12.8220 21.0259 -2.3891 0.0000 -0.0000 -12.2382 -6.4828 14.4428 -1.6234 7.1250 -0.0000 -0.0000 14.2423 -15.7335 10.1699
1.7524 16.6083 16.7950 2.2179 3.5533 23.0556 0.0000 0.0000 0.0000 -27.9263 8.4762 -26.1437 7.4382 15.6900 50.5127 -7.1014 42.1018 -28.2743 5.4345 13.8570 42.6675 0.0000 0.0000 0.0000 25.6825 14.6855 -39.6818 -5.0456 -13.4350 41.0193 -7.0739 -13.8407 -55.4558 -5.9367 -14.3667 44.7271 -1.5319 -0.9456 -17.3975 -1.3858 -0.9486 -7.9643 -0.7612 -0.4566 1.2436 -3.6397 -2.3427 -15.9713 1.9533 -3.0411 35.4059 0.9302 -1.5128 15.1124 -0.0000 0.0000 0.0000 -84.3924 22.1167 8.2849 24.5829 -35.7747 -8.0448 -0.0000 0.0000 -3.3949 -2.0394 18.4807 -0.6467 -7.1250 0.0000 -0.0000 -28.1640 46.3382 -1.0097 -0.0000 0.0000 0.0000 81.1288 -13.8395 35.0686 -13.1093 21.4472 -2.4931 0.0000 -0.0000 -13.0898 -7.1461 14.0896 -1.7482 7.1250 -0.0000 -0.0000 13.8151 -16.0436 9.7499
1.7478 16.6119 16.7921 2.3272 3.5434 23.0514 0.0000 0.0000 0.0000 -28.0814 8.5343 -26.2537 7.4512 15.7004 50.5609 -7.9685 43.4501 -25.8631 5.0762 13.4691 41.1508 0.0000 0.0000 0.0000 25.5365 14.8126 -39.6793 -5.0532 -13.4435 41.0521 -7.0684 -14.0500 -55.5264 -5.9312 -14.3613 44.7049 -1.7076 -0.9552 -17.4656 -1.4194 -0.9280 -7.8334 -0.6959 -0.4436 1.4201 -3.6967 -2.3586 -15.8351 2.0361 -3.0760 35.1872 0.9688 -1.5239 14.9809 0.0000 0.0000 0.0000 -84.3011 21.7845 8.3385 24.8594 -36.0599 -8.2070 -0.0000 0.0000 -3.4734 -2.2211 18.9429 -0.7213 -7.1250 0.0000 -0.0000 -28.5476 46.7223 -1.3190 0.0000 0.0000 0.0000 81.0943 -13.9255 36.0672 -13.3666 21.8220 -2.5880 0.0000 -0.0000 -14.0826 -7.9605 13.8007 -1.9106 7.1250 -0.0000 -0.0000 13.2799 -16.2834 9.2789
1.7441 16.6106 16.7932 2.3844 3.5813 23.0705 0.0000 0.0000 0.0000 -28.1543 8.5996 -26.3033 7.4749 15.7191 50.6483 -8.0808 43.6010 -25.1931 4.9911 13.3737 40.7841 0.0000 0.0000 0.0000 25.4967 14.7975 -39.7049 -5.0543 -13.4447 41.0570 -7.0374 -14.1855 -55.4828 -5.8282 -14.2597 44.2882 -1.8158 -0.9494 -17.6247 -1.4243 -0.8952 -7.7062 -0.6376 -0.4259 1.6393 -3.8596 -2.4071 -15.6264 2.1759 -3.1484 34.9466 1.0436 -1.5578 14.8288 -0.0000 -0.0000 0.0000 -84.2180 21.4894 8.4972 25.3701 -36.5799 -8.5095 -0.0000 0.0000 -3.5242 -2.7665 20.1137 -0.9520 -7.1250 0.0000 -0.0000 -29.6205 47.6756 -2.1343 -0.0000 -0.0000 0.0000 81.0135 -14.0878 37.0784 -13.6242 22.1949 -2.6845 0.0000 -0.0000 -15.2244 -8.7804 13.5086 -2.0663 7.1250 -0.0000 -0.0000 12.7375 -16.5259 8.8106
1.7338 16.6081 16.7827 2.5426 3.4824 23.0631 0.0000 0.0000 0.0000 -28.3571 8.6072 -26.3786 7.4895 15.7306 50.7022 -7.8501 43.2543 -26.1199 5.0529 13.4431 41.0508 0.0000 0.0000 0.0000 25.2064 15.3342 -39.6170 -5.0651 -13.4568 41.1034 -7.1180 -14.3709 -55.8249 -5.7923 -14.2240 44.1423 -2.1648 -0.9519 -17.4354 -1.4219 -0.8490 -7.6887 -0.4265 -0.3950 1.5634 -3.8801 -2.4493 -15.6571 2.0981 -3.1731 34.9234 1.0102 -1.5811 14.8251 0.0000 0.0000 0.0000 -84.1847 21.2651 8.4954 25.8576 -37.0677 -8.8017 -0.0000 0.0000 -3.3031 -3.8315 21.5586 -1.4097 -7.1250 0.0000 -0.0000 -31.3439 48.7761 -3.2107 0.0000 0.0000 0.0000 80.8795 -14.3570 38.2615 -13.8864 22.5721 -2.7844 0.0000 -0.0000 -16.5843 -9.8886 13.7165 -2.3670 7.1250 -0.0000 -0.0000 11.9776 -16.2565 8.3317
1.7236 16.6067 16.7644 2.5648 3.5357 23.0316 0.0000 0.0000 0.0000 -28.3758 8.6117 -26.5304 7.5125 15.7487 50.7871 -7.7008 43.0366 -26.7064 5.1355 13.5348 41.4048 0.0000 0.0000 0.0000 25.1074 15.8049 -39.5162 -5.0704 -13.4626 41.1258 -7.2938 -14.2056 -56.3242 -5.9567 -14.3863 44.8078 -2.2879 -0.9261 -16.8702 -1.4329 -0.8201 -7.8880 -0.3535 -0.3735 1.0581 -3.8484 -2.4709 -15.5991 2.0286 -3.1933 35.0326 0.9737 -1.5953 14.8617 -0.0000 -0.0000 0.0000 -84.0109 21.5169 8.8590 26.3462 -37.5486 -9.0978 -0.0000 0.0000 -3.3947 -4.2379 22.4042 -1.6178 -7.1250 0.0000 -0.0000 -32.1942 49.4401 -3.8893 -0.0000 -0.0000 0.0000 80.8240 -14.9577 39.4016 -14.1805 22.9921 -2.8982 0.0000 -0.0000 -18.1111 -10.9798 14.0068 -2.6886 7.1250 -0.0000 -0.0000 11.2288 -15.8996 7.8777
